<?xml version="1.0" encoding="utf-8"?>
<!-- Generator: Adobe Illustrator 24.0.0, SVG Export Plug-In . SVG Version: 6.00 Build 0)  -->
<svg version="1.1" id="Layer_1" xmlns="http://www.w3.org/2000/svg" xmlns:xlink="http://www.w3.org/1999/xlink" x="0px" y="0px"
	 viewBox="0 0 115 130" style="enable-background:new 0 0 115 130;" xml:space="preserve">
<style type="text/css">
	.st0{fill:#FFD466;}
	.st1{fill:#C6A24E;}
	.st2{fill:#E5BB5C;}
</style>
<g>
	<path class="st0" d="M17.72,113.11c-10.06,0-17.24-9.96-13.84-19.44c7.91-22.02,28.93-37.54,53.62-37.54s45.71,15.52,53.62,37.54
		c3.4,9.47-3.78,19.44-13.84,19.44H17.72z"/>
	<path class="st0" d="M10.8,81.81c0-23.73,4.67-67.49,46.7-67.49c40.17,0,46.7,43.76,46.7,67.49"/>
	<path class="st1" d="M71.51,113.11c0,7.74-6.27,14.01-14.01,14.01s-14.01-6.27-14.01-14.01"/>
	<path class="st0" d="M43.49,16.89c0-7.74,6.27-14.01,14.01-14.01c7.74,0,14.01,6.27,14.01,14.01"/>
</g>
<polygon class="st2" points="104.04,67.87 10.96,67.87 11.28,62.13 103.65,62.13 "/>
</svg>
